# xmcd
#
# Track frame offsets:
#	150
#	15390
#	32523
#	49804
#	65930
#	82214
#	96719
#	118078
#	139402
#	159841
#	178471
#
# Disc length: 2526 seconds
#
# Revision: 2
# Processed by: cddbd v1.5.2PL0 Copyright (c) Steve Scherf et al.
# Submitted via: dBpowerAMP V4.0
#
DISCID=a209dc0b
DTITLE=Varios - En Tu Fiesta Me Colé - Homenaje A Mecano CD 2
DYEAR=2005
DGENRE=blues
TTITLE0=AMARILLO - Maquillaje
TTITLE1=NIÑOS MUTANTES - Perdido En Mi Habitación
TTITLE2=PIGMY - UN AÑO MAS
TTITLE3=SIWEL - Me Cuesta Tanto Olvidarte
TTITLE4=AUSTRALIAN BLONDE - Máquina De Vapor
TTITLE5=PROFESOR POPSNUGLE - Barco A Venus
TTITLE6=LA COSTA BRAVA - No Me Enseñen La Lección
TTITLE7=BIG CITY - El 7 De Septiembre
TTITLE8=LUXURY 54 - Me Colé En Una Fiesta
TTITLE9=DENEUVE - Cenando En París
TTITLE10=ELLOS - Quédate En Madrid
EXTD=
EXTT0=
EXTT1=
EXTT2=
EXTT3=
EXTT4=
EXTT5=
EXTT6=
EXTT7=
EXTT8=
EXTT9=
EXTT10=
PLAYORDER=
